<?xml version="1.0" standalone="no"?><!DOCTYPE svg PUBLIC "-//W3C//DTD SVG 1.1//EN" "http://www.w3.org/Graphics/SVG/1.1/DTD/svg11.dtd"><svg t="1686726944282" class="icon" viewBox="0 0 1024 1024" version="1.1" xmlns="http://www.w3.org/2000/svg" p-id="1604" xmlns:xlink="http://www.w3.org/1999/xlink" width="200" height="200"><path d="M42.666667 682.666667h640v128H42.666667z" fill="#E09E00" p-id="1605"></path><path d="M0 618.666667h640v64H0z" fill="#FFC107" p-id="1606"></path><path d="M256 810.666667m-106.666667 0a106.666667 106.666667 0 1 0 213.333334 0 106.666667 106.666667 0 1 0-213.333334 0Z" fill="#37474F" p-id="1607"></path><path d="M256 810.666667m-64 0a64 64 0 1 0 128 0 64 64 0 1 0-128 0Z" fill="#90A4AE" p-id="1608"></path><path d="M256 810.666667m-21.333333 0a21.333333 21.333333 0 1 0 42.666666 0 21.333333 21.333333 0 1 0-42.666666 0Z" fill="#607D8B" p-id="1609"></path><path d="M42.666667 725.333333h64v42.666667H42.666667z" fill="#F44336" p-id="1610"></path><path d="M981.333333 810.666667H576V320a42.666667 42.666667 0 0 1 42.666667-42.666667h192a85.333333 85.333333 0 0 1 69.12 35.2l128 177.066667A85.333333 85.333333 0 0 1 1024 539.733333V768a42.666667 42.666667 0 0 1-42.666667 42.666667z" fill="#FFC107" p-id="1611"></path><path d="M768 810.666667m-106.666667 0a106.666667 106.666667 0 1 0 213.333334 0 106.666667 106.666667 0 1 0-213.333334 0Z" fill="#37474F" p-id="1612"></path><path d="M768 810.666667m-64 0a64 64 0 1 0 128 0 64 64 0 1 0-128 0Z" fill="#90A4AE" p-id="1613"></path><path d="M768 810.666667m-21.333333 0a21.333333 21.333333 0 1 0 42.666666 0 21.333333 21.333333 0 1 0-42.666666 0Z" fill="#607D8B" p-id="1614"></path><path d="M118.826667 106.666667A42.666667 42.666667 0 0 0 106.666667 162.133333l256 402.346667V640h170.666666v-106.666667L173.226667 113.066667A42.666667 42.666667 0 0 0 118.826667 106.666667z" fill="#FFC107" p-id="1615"></path><path d="M128 384m-32 0a32 32 0 1 0 64 0 32 32 0 1 0-64 0Z" fill="#607D8B" p-id="1616"></path><path d="M661.333333 213.333333m21.333334 0l85.333333 0q21.333333 0 21.333333 21.333334l0 21.333333q0 21.333333-21.333333 21.333333l-85.333333 0q-21.333333 0-21.333334-21.333333l0-21.333333q0-21.333333 21.333334-21.333334Z" fill="#F44336" p-id="1617"></path><path d="M704 234.666667h42.666667v42.666666h-42.666667z" fill="#EF9A9A" p-id="1618"></path><path d="M746.666667 320h72.106666a42.666667 42.666667 0 0 1 34.346667 17.493333l119.893333 163.2a42.666667 42.666667 0 0 1 8.32 25.386667V554.666667a42.666667 42.666667 0 0 1-42.666666 42.666666h-85.333334l-64-64h-42.666666a21.333333 21.333333 0 0 1-21.333334-21.333333v-170.666667a21.333333 21.333333 0 0 1 21.333334-21.333333z" fill="#37474F" p-id="1619"></path><path d="M618.666667 320m21.333333 0l21.333333 0q21.333333 0 21.333334 21.333333l0 170.666667q0 21.333333-21.333334 21.333333l-21.333333 0q-21.333333 0-21.333333-21.333333l0-170.666667q0-21.333333 21.333333-21.333333Z" fill="#37474F" p-id="1620"></path><path d="M960 640h42.666667v64h-42.666667z" fill="#E3F2FD" p-id="1621"></path><path d="M938.666667 704h21.333333v-64h-21.333333a21.333333 21.333333 0 0 0-21.333334 21.333333v21.333334a21.333333 21.333333 0 0 0 21.333334 21.333333z" fill="#FF5722" p-id="1622"></path></svg>